<svg width="900" height="1111" viewBox="0 0 900 1111" class="keymap" xmlns="http://www.w3.org/2000/svg" xmlns:xlink="http://www.w3.org/1999/xlink">
<defs>/* start glyphs */
<svg id="mdi:bluetooth">
<svg xmlns="http://www.w3.org/2000/svg" id="mdi-bluetooth" viewBox="0 0 24 24"><path d="M14.88,16.29L13,18.17V14.41M13,5.83L14.88,7.71L13,9.58M17.71,7.71L12,2H11V9.58L6.41,5L5,6.41L10.59,12L5,17.58L6.41,19L11,14.41V22H12L17.71,16.29L13.41,12L17.71,7.71Z" /></svg>
</svg>
<svg id="mdi:bluetooth-connect">
<svg xmlns="http://www.w3.org/2000/svg" id="mdi-bluetooth-connect" viewBox="0 0 24 24"><path d="M19,10L17,12L19,14L21,12M14.88,16.29L13,18.17V14.41M13,5.83L14.88,7.71L13,9.58M17.71,7.71L12,2H11V9.58L6.41,5L5,6.41L10.59,12L5,17.58L6.41,19L11,14.41V22H12L17.71,16.29L13.41,12M7,12L5,10L3,12L5,14L7,12Z" /></svg>
</svg>
<svg id="mdi:close-thick">
<svg xmlns="http://www.w3.org/2000/svg" id="mdi-close-thick" viewBox="0 0 24 24"><path d="M20 6.91L17.09 4L12 9.09L6.91 4L4 6.91L9.09 12L4 17.09L6.91 20L12 14.91L17.09 20L20 17.09L14.91 12L20 6.91Z" /></svg>
</svg>
<svg id="mdi:memory-arrow-down">
<svg xmlns="http://www.w3.org/2000/svg" id="mdi-memory-arrow-down" viewBox="0 0 24 24"><path d="M19 19V15H17V19H15L18 22L21 19H19M12.1 19H11V21H9V19H7C5.9 19 5 18.1 5 17V15H3V13H5V11H3V9H5V7C5 5.9 5.9 5 7 5H9V3H11V5H13V3H15V5H17C18.1 5 19 5.9 19 7V9H21V11H19V12.1C18.7 12 18.3 12 18 12S17.3 12 17 12.1V7H7V17H12.1C12 17.3 12 17.7 12 18S12 18.7 12.1 19M9 15H12.8C13.3 14.1 14.1 13.3 15 12.8V9H9V15M11 11H13V13H11V11Z" /></svg>
</svg>
<svg id="mdi:mouse-left-click">
<svg xmlns="http://www.w3.org/2000/svg" id="mdi-mouse-left-click" viewBox="0 0 24 24"><path d="M13 9V1.07C16.94 1.56 20 4.92 20 9H13M6.34 20.66C4.84 19.16 4 17.12 4 15V11H20V15C20 17.12 19.16 19.16 17.66 20.66C16.16 22.16 14.12 23 12 23C9.88 23 7.84 22.16 6.34 20.66M11 9V1.07C10.3 1.16 9.63 1.33 9 1.59C6.67 2.53 4.89 4.53 4.25 7C4.09 7.64 4 8.31 4 9H11M6.34 7C6.82 5.65 7.78 4.5 9 3.81V7H6.34Z" /></svg>
</svg>
<svg id="mdi:mouse-right-click">
<svg xmlns="http://www.w3.org/2000/svg" id="mdi-mouse-right-click" viewBox="0 0 24 24"><path d="M13 9V1.07C13.7 1.16 14.37 1.33 15 1.59C17.33 2.53 19.11 4.53 19.75 7C19.91 7.64 20 8.31 20 9H13M17.66 7C17.18 5.65 16.23 4.5 15 3.81V7H17.66M11 9V1.07C7.06 1.56 4 4.92 4 9H11M6.34 20.66C4.84 19.16 4 17.12 4 15V11H20V15C20 17.12 19.16 19.16 17.66 20.66C16.16 22.16 14.12 23 12 23C9.88 23 7.84 22.16 6.34 20.66Z" /></svg>
</svg>
</defs>/* end glyphs */
<style>/* font and background color specifications */
svg {
    font-family: SFMono-Regular,Consolas,Liberation Mono,Menlo,monospace;
    font-kerning: normal;
    text-rendering: optimizeLegibility;
    fill: #24292e;
}

/* font and background color specifications */
svg.keymap {
    /*
     * ====================
     * Theme Variables
     * ====================
     */

    /* === Colors === */

    --color--material--blue--50: rgb(227, 242, 253);
    --color--material--blue--100: rgb(187, 222, 251);
    --color--material--blue--200: rgb(144, 202, 249);
    --color--material--blue--300: rgb(100, 181, 246);
    --color--material--blue--400: rgb(66, 165, 245);
    --color--material--blue--500: rgb(33, 150, 243);
    --color--material--blue--600: rgb(30, 136, 229);
    --color--material--blue--700: rgb(25, 118, 210);
    --color--material--blue--800: rgb(21, 101, 192);
    --color--material--blue--900: rgb(13, 71, 161);
    --color--material--blue--a100: rgb(130, 177, 255);
    --color--material--blue--a200: rgb(68, 138, 255);
    --color--material--blue--a400: rgb(41, 121, 255);
    --color--material--blue--a700: rgb(41, 98, 255);

    --color--material--blue-gray--50: rgb(236, 239, 241);
    --color--material--blue-gray--100: rgb(207, 216, 220);
    --color--material--blue-gray--200: rgb(176, 190, 197);
    --color--material--blue-gray--300: rgb(144, 164, 174);
    --color--material--blue-gray--400: rgb(120, 144, 156);
    --color--material--blue-gray--500: rgb(96, 125, 139);
    --color--material--blue-gray--600: rgb(84, 110, 122);
    --color--material--blue-gray--700: rgb(69, 90, 100);
    --color--material--blue-gray--800: rgb(55, 71, 79);
    --color--material--blue-gray--900: rgb(38, 50, 56);

    --color--material--blue-light--50: rgb(225, 245, 254);
    --color--material--blue-light--100: rgb(179, 229, 252);
    --color--material--blue-light--200: rgb(129, 212, 250);
    --color--material--blue-light--300: rgb(79, 195, 247);
    --color--material--blue-light--400: rgb(41, 182, 246);
    --color--material--blue-light--500: rgb(3, 169, 244);
    --color--material--blue-light--600: rgb(3, 155, 229);
    --color--material--blue-light--700: rgb(2, 136, 209);
    --color--material--blue-light--800: rgb(2, 119, 189);
    --color--material--blue-light--900: rgb(1, 87, 155);
    --color--material--blue-light--a100: rgb(128, 216, 255);
    --color--material--blue-light--a200: rgb(64, 196, 255);
    --color--material--blue-light--a400: rgb(0, 176, 255);
    --color--material--blue-light--a700: rgb(0, 145, 234);

    --color--material--purple--50: rgb(243, 229, 245);
    --color--material--purple--100: rgb(225, 190, 231);
    --color--material--purple--200: rgb(206, 147, 216);
    --color--material--purple--300: rgb(186, 104, 200);
    --color--material--purple--400: rgb(171, 71, 188);
    --color--material--purple--500: rgb(156, 39, 176);
    --color--material--purple--600: rgb(142, 36, 170);
    --color--material--purple--700: rgb(123, 31, 162);
    --color--material--purple--800: rgb(106, 27, 154);
    --color--material--purple--900: rgb(74, 20, 140);
    --color--material--purple--a100: rgb(234, 128, 252);
    --color--material--purple--a200: rgb(224, 64, 251);
    --color--material--purple--a400: rgb(213, 0, 249);
    --color--material--purple--a700: rgb(170, 0, 255);

    --color--material--red--50: rgb(255, 235, 238);
    --color--material--red--100: rgb(255, 205, 210);
    --color--material--red--200: rgb(239, 154, 154);
    --color--material--red--300: rgb(229, 115, 115);
    --color--material--red--400: rgb(239, 83, 80);
    --color--material--red--500: rgb(244, 67, 54);
    --color--material--red--600: rgb(229, 57, 53);
    --color--material--red--700: rgb(211, 47, 47);
    --color--material--red--800: rgb(198, 40, 40);
    --color--material--red--900: rgb(183, 28, 28);
    --color--material--red--a100: rgb(255, 138, 128);
    --color--material--red--a200: rgb(255, 82, 82);
    --color--material--red--a400: rgb(255, 23, 68);
    --color--material--red--a700: rgb(213, 0, 0);

    --color--material--teal--50: rgb(224, 242, 241);
    --color--material--teal--100: rgb(178, 223, 219);
    --color--material--teal--200: rgb(128, 203, 196);
    --color--material--teal--300: rgb(77, 182, 172);
    --color--material--teal--400: rgb(38, 166, 154);
    --color--material--teal--500: rgb(0, 150, 136);
    --color--material--teal--600: rgb(0, 137, 123);
    --color--material--teal--700: rgb(0, 121, 107);
    --color--material--teal--800: rgb(0, 105, 92);
    --color--material--teal--900: rgb(0, 77, 64);
    --color--material--teal--a100: rgb(167, 255, 235);
    --color--material--teal--a200: rgb(100, 255, 218);
    --color--material--teal--a400: rgb(29, 233, 182);
    --color--material--teal--a700: rgb(0, 191, 165);

    --color--material--yellow--50: rgb(255, 253, 231);
    --color--material--yellow--100: rgb(255, 249, 196);
    --color--material--yellow--200: rgb(255, 245, 157);
    --color--material--yellow--300: rgb(255, 241, 118);
    --color--material--yellow--400: rgb(255, 238, 88);
    --color--material--yellow--500: rgb(255, 235, 59);
    --color--material--yellow--600: rgb(253, 216, 53);
    --color--material--yellow--700: rgb(251, 192, 45);
    --color--material--yellow--800: rgb(249, 168, 37);
    --color--material--yellow--900: rgb(245, 127, 23);
    --color--material--yellow--a100: rgb(255, 255, 141);
    --color--material--yellow--a200: rgb(255, 255, 0);
    --color--material--yellow--a400: rgb(255, 234, 0);
    --color--material--yellow--a700: rgb(255, 214, 0);

    --color--turquoise--500: rgb(51, 204, 204);

    --color--layer--text: white;

    --color--key--bg: #f6f8fa;
    --color--key--border: #c9cccf;
    --color--key--text--tap: var(--color--text);
    --color--key--text--shifted: var(--color--material--blue-gray--500);
    --color--key--text--hold: var(--color--material--blue-gray--500);

    --color--combo--bg: #cdf;
}

/* default key styling */
rect {
    fill: var(--color--key--bg);
    stroke: var(--color--key--border);
    stroke-width: 1;
}

/* color accent for combo boxes */
rect.combo {
    fill: var(--color--combo--bg);
}

/* color accent for held keys */
rect.held, rect.combo.held {
    fill: #fdd;
}

/* color accent for layer-activated keys */
rect.layer {
    fill: #f99;
}

/* color accent for ghost (optional) keys */
rect.ghost, rect.combo.ghost {
    fill: #ddd;
}

text {
    text-anchor: middle;
    dominant-baseline: middle;
}

/* styling for layer labels */
text.label {
    font-weight: bold;
    text-anchor: start;
    stroke: var(--color--layer--text);
    stroke-width: 2;
    paint-order: stroke;
}

/* styling for combo tap, and key hold/shifted label text */
text.combo, text.hold, text.shifted {
    font-size: 11px;
}

text.hold {
    text-anchor: middle;
    dominant-baseline: middle;
    transform: translate(0pt, -10pt);
}

/* styling for hold position text in combo box */
text.combo.hold {
    text-anchor: middle;
    dominant-baseline: middle;
    transform: translate(0pt, 0pt);
}

text.shifted {
    text-anchor: middle;
    dominant-baseline: hanging;
}

/* styling for hold/shifted label text in combo box */
text.combo.hold, text.combo.shifted {
    font-size: 8px;
}

/* styling for combo dendrons */
path {
    stroke-width: 1;
    stroke: gray;
    fill: none;
}

/* thumb keys */
.keypos-36, .keypos-37, .keypos-40 {
    --color--key--bg: var(--color--material--blue-gray--100);
    --color--key--border: var(--color--material--blue-gray--50);
}
.keypos-41 {
    --color--key--bg: var(--color--material--blue--100);
    --color--key--border: var(--color--material--blue--50);
}

/* Overrides */
.boot_loader {
    --color--key--bg: var(--color--material--yellow--400);
    --color--layer--text: var(--color--material--blue--900)
    font-weight: bold;
    stroke-width: 2;
}
.bt_key {
    --color--key--bg: var(--color--material--yellow--100);
    --color--layer--text: var(--color--material--blue--900)
    font-weight: bold;
}
</style>
<g transform="translate(30, 0)" class="layer-base">
<text x="0" y="28" class="label">base:</text>
<g transform="translate(0, 77)">
<g transform="translate(28, 49)" class="key keypos-0">
<rect rx="6" ry="6" x="-26" y="-26" width="52" height="52" class="key"/>
</g>
<g transform="translate(84, 49)" class="key keypos-1">
<rect rx="6" ry="6" x="-26" y="-26" width="52" height="52" class="key"/>
</g>
<g transform="translate(140, 35)" class="key keypos-2">
<rect rx="6" ry="6" x="-26" y="-26" width="52" height="52" class="key"/>
</g>
<g transform="translate(196, 28)" class="key keypos-3">
<rect rx="6" ry="6" x="-26" y="-26" width="52" height="52" class="key"/>
</g>
<g transform="translate(252, 35)" class="key keypos-4">
<rect rx="6" ry="6" x="-26" y="-26" width="52" height="52" class="key"/>
</g>
<g transform="translate(308, 42)" class="key keypos-5">
<rect rx="6" ry="6" x="-26" y="-26" width="52" height="52" class="key"/>
</g>
<g transform="translate(532, 42)" class="key keypos-6">
<rect rx="6" ry="6" x="-26" y="-26" width="52" height="52" class="key"/>
</g>
<g transform="translate(588, 35)" class="key keypos-7">
<rect rx="6" ry="6" x="-26" y="-26" width="52" height="52" class="key"/>
</g>
<g transform="translate(644, 28)" class="key keypos-8">
<rect rx="6" ry="6" x="-26" y="-26" width="52" height="52" class="key"/>
</g>
<g transform="translate(700, 35)" class="key keypos-9">
<rect rx="6" ry="6" x="-26" y="-26" width="52" height="52" class="key"/>
</g>
<g transform="translate(756, 49)" class="key keypos-10">
<rect rx="6" ry="6" x="-26" y="-26" width="52" height="52" class="key"/>
</g>
<g transform="translate(812, 49)" class="key keypos-11">
<rect rx="6" ry="6" x="-26" y="-26" width="52" height="52" class="key"/>
</g>
<g transform="translate(28, 105)" class="key keypos-12">
<rect rx="6" ry="6" x="-26" y="-26" width="52" height="52" class="key"/>
</g>
<g transform="translate(84, 105)" class="key keypos-13">
<rect rx="6" ry="6" x="-26" y="-26" width="52" height="52" class="key"/>
</g>
<g transform="translate(140, 91)" class="key keypos-14">
<rect rx="6" ry="6" x="-26" y="-26" width="52" height="52" class="key"/>
</g>
<g transform="translate(196, 84)" class="key keypos-15">
<rect rx="6" ry="6" x="-26" y="-26" width="52" height="52" class="key"/>
</g>
<g transform="translate(252, 91)" class="key keypos-16">
<rect rx="6" ry="6" x="-26" y="-26" width="52" height="52" class="key"/>
</g>
<g transform="translate(308, 98)" class="key keypos-17">
<rect rx="6" ry="6" x="-26" y="-26" width="52" height="52" class="key"/>
</g>
<g transform="translate(532, 98)" class="key keypos-18">
<rect rx="6" ry="6" x="-26" y="-26" width="52" height="52" class="key"/>
</g>
<g transform="translate(588, 91)" class="key keypos-19">
<rect rx="6" ry="6" x="-26" y="-26" width="52" height="52" class="key"/>
</g>
<g transform="translate(644, 84)" class="key keypos-20">
<rect rx="6" ry="6" x="-26" y="-26" width="52" height="52" class="key"/>
</g>
<g transform="translate(700, 91)" class="key keypos-21">
<rect rx="6" ry="6" x="-26" y="-26" width="52" height="52" class="key"/>
</g>
<g transform="translate(756, 105)" class="key keypos-22">
<rect rx="6" ry="6" x="-26" y="-26" width="52" height="52" class="key"/>
</g>
<g transform="translate(812, 105)" class="key keypos-23">
<rect rx="6" ry="6" x="-26" y="-26" width="52" height="52" class="key"/>
</g>
<g transform="translate(28, 161)" class="key keypos-24">
<rect rx="6" ry="6" x="-26" y="-26" width="52" height="52" class="key"/>
</g>
<g transform="translate(84, 161)" class="key keypos-25">
<rect rx="6" ry="6" x="-26" y="-26" width="52" height="52" class="key"/>
</g>
<g transform="translate(140, 147)" class="key keypos-26">
<rect rx="6" ry="6" x="-26" y="-26" width="52" height="52" class="key"/>
</g>
<g transform="translate(196, 140)" class="key keypos-27">
<rect rx="6" ry="6" x="-26" y="-26" width="52" height="52" class="key"/>
</g>
<g transform="translate(252, 147)" class="key keypos-28">
<rect rx="6" ry="6" x="-26" y="-26" width="52" height="52" class="key"/>
</g>
<g transform="translate(308, 154)" class="key keypos-29">
<rect rx="6" ry="6" x="-26" y="-26" width="52" height="52" class="key"/>
</g>
<g transform="translate(532, 154)" class="key keypos-30">
<rect rx="6" ry="6" x="-26" y="-26" width="52" height="52" class="key"/>
</g>
<g transform="translate(588, 147)" class="key keypos-31">
<rect rx="6" ry="6" x="-26" y="-26" width="52" height="52" class="key"/>
</g>
<g transform="translate(644, 140)" class="key keypos-32">
<rect rx="6" ry="6" x="-26" y="-26" width="52" height="52" class="key"/>
</g>
<g transform="translate(700, 147)" class="key keypos-33">
<rect rx="6" ry="6" x="-26" y="-26" width="52" height="52" class="key"/>
</g>
<g transform="translate(756, 161)" class="key keypos-34">
<rect rx="6" ry="6" x="-26" y="-26" width="52" height="52" class="key"/>
</g>
<g transform="translate(812, 161)" class="key keypos-35">
<rect rx="6" ry="6" x="-26" y="-26" width="52" height="52" class="key"/>
</g>
<g transform="translate(224, 205)" class="key keypos-36">
<rect rx="6" ry="6" x="-26" y="-26" width="52" height="52" class="key"/>
</g>
<g transform="translate(286, 213) rotate(15.0)" class="key keypos-37">
<rect rx="6" ry="6" x="-26" y="-26" width="52" height="52" class="key"/>
</g>
<g transform="translate(351, 224) rotate(30.0)" class="key keypos-38">
<rect rx="6" ry="6" x="-26" y="-40" width="52" height="80" class="key"/>
</g>
<g transform="translate(489, 224) rotate(-30.0)" class="key keypos-39">
<rect rx="6" ry="6" x="-26" y="-40" width="52" height="80" class="key"/>
</g>
<g transform="translate(554, 213) rotate(-15.0)" class="key keypos-40">
<rect rx="6" ry="6" x="-26" y="-26" width="52" height="52" class="key"/>
</g>
<g transform="translate(616, 205)" class="key keypos-41">
<rect rx="6" ry="6" x="-26" y="-26" width="52" height="52" class="key"/>
</g>
<g class="combo combopos-0">
<path d="M196,-8 h-50 a6.0,6.0 0 0 0 -6.0,6.0 v18" class="combo"/>
<path d="M196,-8 h50 a6.0,6.0 0 0 1 6.0,6.0 v18" class="combo"/>
<rect rx="6" ry="6" x="182" y="-21" width="28" height="26" class="combo"/>
<text x="196" y="-8" class="combo tap">💡🖱</text>
</g>
<g class="combo combopos-1">
<rect rx="6" ry="6" x="154" y="74" width="28" height="26" class="combo"/>
<text x="168" y="88" class="combo tap">TAB</text>
</g>
<g class="combo combopos-2">
<rect rx="6" ry="6" x="210" y="74" width="28" height="26" class="combo"/>
<text x="224" y="88" class="combo tap">
<tspan x="224" dy="-0.6em">KRP</tspan><tspan x="224" dy="1.2em">⇧⌃</tspan>
</text>
</g>
<g class="combo combopos-3">
<path d="M196,147 l-37,0" class="combo"/>
<path d="M196,147 l37,0" class="combo"/>
<rect rx="6" ry="6" x="182" y="134" width="28" height="26" class="combo"/>
<text x="196" y="147" class="combo tap">^X/✄</text>
</g>
<g class="combo combopos-4">
<rect rx="6" ry="6" x="154" y="130" width="28" height="26" class="combo"/>
<text x="168" y="144" class="combo tap">^⎀/⧉</text>
</g>
<g class="combo combopos-5">
<rect rx="6" ry="6" x="210" y="130" width="28" height="26" class="combo"/>
<text x="224" y="144" class="combo tap">⇧⎀/⎘</text>
</g>
<g class="combo combopos-6">
<rect rx="6" ry="6" x="602" y="18" width="28" height="26" class="combo"/>
<text x="616" y="32" class="combo tap">⌫</text>
</g>
<g class="combo combopos-7">
<rect rx="6" ry="6" x="658" y="18" width="28" height="26" class="combo"/>
<text x="672" y="32" class="combo tap">␡</text>
</g>
<g class="combo combopos-8">
<rect rx="6" ry="6" x="602" y="74" width="28" height="26" class="combo"/>
<text x="616" y="88" class="combo tap">
<tspan x="616" dy="-0.6em">(&lt;</tspan><tspan x="616" dy="1.2em">⇧⌃</tspan>
</text>
</g>
<g class="combo combopos-9">
<rect rx="6" ry="6" x="658" y="74" width="28" height="26" class="combo"/>
<text x="672" y="88" class="combo tap">
<tspan x="672" dy="-0.6em">)&gt;</tspan><tspan x="672" dy="1.2em">⎇⌃</tspan>
</text>
</g>
<g class="combo combopos-10">
<rect rx="6" ry="6" x="602" y="130" width="28" height="26" class="combo"/>
<text x="616" y="144" class="combo tap">[{</text>
</g>
<g class="combo combopos-11">
<rect rx="6" ry="6" x="658" y="130" width="28" height="26" class="combo"/>
<text x="672" y="144" class="combo tap">]}</text>
</g>
<g class="combo combopos-12">
<rect rx="6" ry="6" x="126" y="50" width="28" height="26" class="combo"/>
<text x="140" y="63" class="combo tap">@</text>
</g>
<g class="combo combopos-13">
<rect rx="6" ry="6" x="182" y="43" width="28" height="26" class="combo"/>
<text x="196" y="56" class="combo tap">#</text>
</g>
<g class="combo combopos-14">
<rect rx="6" ry="6" x="238" y="50" width="28" height="26" class="combo"/>
<text x="252" y="63" class="combo tap">$</text>
</g>
<g class="combo combopos-15">
<rect rx="6" ry="6" x="294" y="57" width="28" height="26" class="combo"/>
<text x="308" y="70" class="combo tap">%</text>
</g>
<g class="combo combopos-16">
<rect rx="6" ry="6" x="126" y="106" width="28" height="26" class="combo"/>
<text x="140" y="119" class="combo tap">`</text>
</g>
<g class="combo combopos-17">
<rect rx="6" ry="6" x="182" y="99" width="28" height="26" class="combo"/>
<text x="196" y="112" class="combo tap">\</text>
</g>
<g class="combo combopos-18">
<rect rx="6" ry="6" x="238" y="106" width="28" height="26" class="combo"/>
<text x="252" y="119" class="combo tap">=</text>
</g>
<g class="combo combopos-19">
<rect rx="6" ry="6" x="294" y="113" width="28" height="26" class="combo"/>
<text x="308" y="126" class="combo tap">~</text>
</g>
<g class="combo combopos-20">
<rect rx="6" ry="6" x="518" y="57" width="28" height="26" class="combo"/>
<text x="532" y="70" class="combo tap">^</text>
</g>
<g class="combo combopos-21">
<rect rx="6" ry="6" x="574" y="50" width="28" height="26" class="combo"/>
<text x="588" y="63" class="combo tap">+</text>
</g>
<g class="combo combopos-22">
<rect rx="6" ry="6" x="630" y="43" width="28" height="26" class="combo"/>
<text x="644" y="56" class="combo tap">*</text>
</g>
<g class="combo combopos-23">
<rect rx="6" ry="6" x="686" y="50" width="28" height="26" class="combo"/>
<text x="700" y="63" class="combo tap">&amp;</text>
</g>
<g class="combo combopos-24">
<rect rx="6" ry="6" x="518" y="113" width="28" height="26" class="combo"/>
<text x="532" y="126" class="combo tap">_</text>
</g>
<g class="combo combopos-25">
<rect rx="6" ry="6" x="574" y="106" width="28" height="26" class="combo"/>
<text x="588" y="119" class="combo tap">-</text>
</g>
<g class="combo combopos-26">
<rect rx="6" ry="6" x="630" y="99" width="28" height="26" class="combo"/>
<text x="644" y="112" class="combo tap">/</text>
</g>
<g class="combo combopos-27">
<rect rx="6" ry="6" x="686" y="106" width="28" height="26" class="combo"/>
<text x="700" y="119" class="combo tap">|</text>
</g>
</g>
</g>
<g transform="translate(30, 352)" class="layer-nav">
<text x="0" y="28" class="label">nav:</text>
<g transform="translate(0, 77)">
<g transform="translate(28, 49)" class="key keypos-0">
<rect rx="6" ry="6" x="-26" y="-26" width="52" height="52" class="key"/>
</g>
<g transform="translate(84, 49)" class="key keypos-1">
<rect rx="6" ry="6" x="-26" y="-26" width="52" height="52" class="key"/>
</g>
<g transform="translate(140, 35)" class="key keypos-2">
<rect rx="6" ry="6" x="-26" y="-26" width="52" height="52" class="key"/>
</g>
<g transform="translate(196, 28)" class="key keypos-3">
<rect rx="6" ry="6" x="-26" y="-26" width="52" height="52" class="key"/>
</g>
<g transform="translate(252, 35)" class="key keypos-4">
<rect rx="6" ry="6" x="-26" y="-26" width="52" height="52" class="key"/>
</g>
<g transform="translate(308, 42)" class="key keypos-5">
<rect rx="6" ry="6" x="-26" y="-26" width="52" height="52" class="key"/>
</g>
<g transform="translate(532, 42)" class="key keypos-6">
<rect rx="6" ry="6" x="-26" y="-26" width="52" height="52" class="key"/>
</g>
<g transform="translate(588, 35)" class="key keypos-7">
<rect rx="6" ry="6" x="-26" y="-26" width="52" height="52" class="key"/>
</g>
<g transform="translate(644, 28)" class="key keypos-8">
<rect rx="6" ry="6" x="-26" y="-26" width="52" height="52" class="key"/>
</g>
<g transform="translate(700, 35)" class="key keypos-9">
<rect rx="6" ry="6" x="-26" y="-26" width="52" height="52" class="key"/>
</g>
<g transform="translate(756, 49)" class="key keypos-10">
<rect rx="6" ry="6" x="-26" y="-26" width="52" height="52" class="key"/>
</g>
<g transform="translate(812, 49)" class="key keypos-11">
<rect rx="6" ry="6" x="-26" y="-26" width="52" height="52" class="key"/>
</g>
<g transform="translate(28, 105)" class="key keypos-12">
<rect rx="6" ry="6" x="-26" y="-26" width="52" height="52" class="key"/>
</g>
<g transform="translate(84, 105)" class="key keypos-13">
<rect rx="6" ry="6" x="-26" y="-26" width="52" height="52" class="key"/>
</g>
<g transform="translate(140, 91)" class="key keypos-14">
<rect rx="6" ry="6" x="-26" y="-26" width="52" height="52" class="key"/>
</g>
<g transform="translate(196, 84)" class="key keypos-15">
<rect rx="6" ry="6" x="-26" y="-26" width="52" height="52" class="key"/>
</g>
<g transform="translate(252, 91)" class="key keypos-16">
<rect rx="6" ry="6" x="-26" y="-26" width="52" height="52" class="key"/>
</g>
<g transform="translate(308, 98)" class="key keypos-17">
<rect rx="6" ry="6" x="-26" y="-26" width="52" height="52" class="key"/>
</g>
<g transform="translate(532, 98)" class="key keypos-18">
<rect rx="6" ry="6" x="-26" y="-26" width="52" height="52" class="key"/>
</g>
<g transform="translate(588, 91)" class="key keypos-19">
<rect rx="6" ry="6" x="-26" y="-26" width="52" height="52" class="key"/>
</g>
<g transform="translate(644, 84)" class="key keypos-20">
<rect rx="6" ry="6" x="-26" y="-26" width="52" height="52" class="key"/>
</g>
<g transform="translate(700, 91)" class="key keypos-21">
<rect rx="6" ry="6" x="-26" y="-26" width="52" height="52" class="key"/>
</g>
<g transform="translate(756, 105)" class="key keypos-22">
<rect rx="6" ry="6" x="-26" y="-26" width="52" height="52" class="key"/>
</g>
<g transform="translate(812, 105)" class="key keypos-23">
<rect rx="6" ry="6" x="-26" y="-26" width="52" height="52" class="key"/>
</g>
<g transform="translate(28, 161)" class="key keypos-24">
<rect rx="6" ry="6" x="-26" y="-26" width="52" height="52" class="key"/>
</g>
<g transform="translate(84, 161)" class="key keypos-25">
<rect rx="6" ry="6" x="-26" y="-26" width="52" height="52" class="key"/>
</g>
<g transform="translate(140, 147)" class="key keypos-26">
<rect rx="6" ry="6" x="-26" y="-26" width="52" height="52" class="key"/>
</g>
<g transform="translate(196, 140)" class="key keypos-27">
<rect rx="6" ry="6" x="-26" y="-26" width="52" height="52" class="key"/>
</g>
<g transform="translate(252, 147)" class="key keypos-28">
<rect rx="6" ry="6" x="-26" y="-26" width="52" height="52" class="key"/>
</g>
<g transform="translate(308, 154)" class="key keypos-29">
<rect rx="6" ry="6" x="-26" y="-26" width="52" height="52" class="key"/>
</g>
<g transform="translate(532, 154)" class="key keypos-30">
<rect rx="6" ry="6" x="-26" y="-26" width="52" height="52" class="key"/>
</g>
<g transform="translate(588, 147)" class="key keypos-31">
<rect rx="6" ry="6" x="-26" y="-26" width="52" height="52" class="key"/>
</g>
<g transform="translate(644, 140)" class="key keypos-32">
<rect rx="6" ry="6" x="-26" y="-26" width="52" height="52" class="key"/>
</g>
<g transform="translate(700, 147)" class="key keypos-33">
<rect rx="6" ry="6" x="-26" y="-26" width="52" height="52" class="key"/>
</g>
<g transform="translate(756, 161)" class="key keypos-34">
<rect rx="6" ry="6" x="-26" y="-26" width="52" height="52" class="key"/>
</g>
<g transform="translate(812, 161)" class="key keypos-35">
<rect rx="6" ry="6" x="-26" y="-26" width="52" height="52" class="key"/>
</g>
<g transform="translate(224, 205)" class="key keypos-36">
<rect rx="6" ry="6" x="-26" y="-26" width="52" height="52" class="key"/>
</g>
<g transform="translate(286, 213) rotate(15.0)" class="key keypos-37">
<rect rx="6" ry="6" x="-26" y="-26" width="52" height="52" class="key"/>
</g>
<g transform="translate(351, 224) rotate(30.0)" class="key keypos-38">
<rect rx="6" ry="6" x="-26" y="-40" width="52" height="80" class="key"/>
</g>
<g transform="translate(489, 224) rotate(-30.0)" class="key keypos-39">
<rect rx="6" ry="6" x="-26" y="-40" width="52" height="80" class="key"/>
</g>
<g transform="translate(554, 213) rotate(-15.0)" class="key keypos-40">
<rect rx="6" ry="6" x="-26" y="-26" width="52" height="52" class="key"/>
</g>
<g transform="translate(616, 205)" class="key keypos-41">
<rect rx="6" ry="6" x="-26" y="-26" width="52" height="52" class="key"/>
</g>
<g class="combo combopos-0">
<path d="M196,-8 h-50 a6.0,6.0 0 0 0 -6.0,6.0 v18" class="combo"/>
<path d="M196,-8 h50 a6.0,6.0 0 0 1 6.0,6.0 v18" class="combo"/>
<rect rx="6" ry="6" x="182" y="-21" width="28" height="26" class="combo"/>
<text x="196" y="-8" class="combo tap">💡🖱</text>
</g>
<g class="combo combopos-1">
<rect rx="6" ry="6" x="154" y="74" width="28" height="26" class="combo"/>
<text x="168" y="88" class="combo tap">TAB</text>
</g>
<g class="combo combopos-2">
<rect rx="6" ry="6" x="210" y="74" width="28" height="26" class="combo"/>
<text x="224" y="88" class="combo tap">
<tspan x="224" dy="-0.6em">KRP</tspan><tspan x="224" dy="1.2em">⇧⌃</tspan>
</text>
</g>
<g class="combo combopos-3">
<path d="M196,147 l-37,0" class="combo"/>
<path d="M196,147 l37,0" class="combo"/>
<rect rx="6" ry="6" x="182" y="134" width="28" height="26" class="combo"/>
<text x="196" y="147" class="combo tap">^X/✄</text>
</g>
<g class="combo combopos-4">
<rect rx="6" ry="6" x="154" y="130" width="28" height="26" class="combo"/>
<text x="168" y="144" class="combo tap">^⎀/⧉</text>
</g>
<g class="combo combopos-5">
<rect rx="6" ry="6" x="210" y="130" width="28" height="26" class="combo"/>
<text x="224" y="144" class="combo tap">⇧⎀/⎘</text>
</g>
<g class="combo combopos-6">
<rect rx="6" ry="6" x="602" y="18" width="28" height="26" class="combo"/>
<text x="616" y="32" class="combo tap">⌫</text>
</g>
<g class="combo combopos-7">
<rect rx="6" ry="6" x="658" y="18" width="28" height="26" class="combo"/>
<text x="672" y="32" class="combo tap">␡</text>
</g>
<g class="combo combopos-8">
<rect rx="6" ry="6" x="602" y="74" width="28" height="26" class="combo"/>
<text x="616" y="88" class="combo tap">&lt;</text>
</g>
<g class="combo combopos-9">
<rect rx="6" ry="6" x="658" y="74" width="28" height="26" class="combo"/>
<text x="672" y="88" class="combo tap">&gt;</text>
</g>
<g class="combo combopos-10">
<rect rx="6" ry="6" x="602" y="130" width="28" height="26" class="combo"/>
<text x="616" y="144" class="combo tap">{</text>
</g>
<g class="combo combopos-11">
<rect rx="6" ry="6" x="658" y="130" width="28" height="26" class="combo"/>
<text x="672" y="144" class="combo tap">}</text>
</g>
<g class="combo combopos-12">
<rect rx="6" ry="6" x="126" y="50" width="28" height="26" class="combo"/>
<text x="140" y="63" class="combo tap">@</text>
</g>
<g class="combo combopos-13">
<rect rx="6" ry="6" x="182" y="43" width="28" height="26" class="combo"/>
<text x="196" y="56" class="combo tap">#</text>
</g>
<g class="combo combopos-14">
<rect rx="6" ry="6" x="238" y="50" width="28" height="26" class="combo"/>
<text x="252" y="63" class="combo tap">$</text>
</g>
<g class="combo combopos-15">
<rect rx="6" ry="6" x="294" y="57" width="28" height="26" class="combo"/>
<text x="308" y="70" class="combo tap">%</text>
</g>
<g class="combo combopos-16">
<rect rx="6" ry="6" x="126" y="106" width="28" height="26" class="combo"/>
<text x="140" y="119" class="combo tap">`</text>
</g>
<g class="combo combopos-17">
<rect rx="6" ry="6" x="182" y="99" width="28" height="26" class="combo"/>
<text x="196" y="112" class="combo tap">\</text>
</g>
<g class="combo combopos-18">
<rect rx="6" ry="6" x="238" y="106" width="28" height="26" class="combo"/>
<text x="252" y="119" class="combo tap">=</text>
</g>
<g class="combo combopos-19">
<rect rx="6" ry="6" x="294" y="113" width="28" height="26" class="combo"/>
<text x="308" y="126" class="combo tap">~</text>
</g>
<g class="combo combopos-20">
<rect rx="6" ry="6" x="518" y="57" width="28" height="26" class="combo"/>
<text x="532" y="70" class="combo tap">^</text>
</g>
<g class="combo combopos-21">
<rect rx="6" ry="6" x="574" y="50" width="28" height="26" class="combo"/>
<text x="588" y="63" class="combo tap">+</text>
</g>
<g class="combo combopos-22">
<rect rx="6" ry="6" x="630" y="43" width="28" height="26" class="combo"/>
<text x="644" y="56" class="combo tap">*</text>
</g>
<g class="combo combopos-23">
<rect rx="6" ry="6" x="686" y="50" width="28" height="26" class="combo"/>
<text x="700" y="63" class="combo tap">&amp;</text>
</g>
<g class="combo combopos-24">
<rect rx="6" ry="6" x="518" y="113" width="28" height="26" class="combo"/>
<text x="532" y="126" class="combo tap">_</text>
</g>
<g class="combo combopos-25">
<rect rx="6" ry="6" x="574" y="106" width="28" height="26" class="combo"/>
<text x="588" y="119" class="combo tap">-</text>
</g>
<g class="combo combopos-26">
<rect rx="6" ry="6" x="630" y="99" width="28" height="26" class="combo"/>
<text x="644" y="112" class="combo tap">/</text>
</g>
<g class="combo combopos-27">
<rect rx="6" ry="6" x="686" y="106" width="28" height="26" class="combo"/>
<text x="700" y="119" class="combo tap">|</text>
</g>
</g>
</g>
<g transform="translate(30, 703)" class="layer-num">
<text x="0" y="28" class="label">num:</text>
<g transform="translate(0, 77)">
<g transform="translate(28, 49)" class="key keypos-0">
<rect rx="6" ry="6" x="-26" y="-26" width="52" height="52" class="key"/>
</g>
<g transform="translate(84, 49)" class="key keypos-1">
<rect rx="6" ry="6" x="-26" y="-26" width="52" height="52" class="key"/>
</g>
<g transform="translate(140, 35)" class="key keypos-2">
<rect rx="6" ry="6" x="-26" y="-26" width="52" height="52" class="key"/>
</g>
<g transform="translate(196, 28)" class="key keypos-3">
<rect rx="6" ry="6" x="-26" y="-26" width="52" height="52" class="key"/>
</g>
<g transform="translate(252, 35)" class="key keypos-4">
<rect rx="6" ry="6" x="-26" y="-26" width="52" height="52" class="key"/>
</g>
<g transform="translate(308, 42)" class="key keypos-5">
<rect rx="6" ry="6" x="-26" y="-26" width="52" height="52" class="key"/>
</g>
<g transform="translate(532, 42)" class="key keypos-6">
<rect rx="6" ry="6" x="-26" y="-26" width="52" height="52" class="key"/>
</g>
<g transform="translate(588, 35)" class="key keypos-7">
<rect rx="6" ry="6" x="-26" y="-26" width="52" height="52" class="key"/>
</g>
<g transform="translate(644, 28)" class="key keypos-8">
<rect rx="6" ry="6" x="-26" y="-26" width="52" height="52" class="key"/>
</g>
<g transform="translate(700, 35)" class="key keypos-9">
<rect rx="6" ry="6" x="-26" y="-26" width="52" height="52" class="key"/>
</g>
<g transform="translate(756, 49)" class="key keypos-10">
<rect rx="6" ry="6" x="-26" y="-26" width="52" height="52" class="key"/>
</g>
<g transform="translate(812, 49)" class="key keypos-11">
<rect rx="6" ry="6" x="-26" y="-26" width="52" height="52" class="key"/>
</g>
<g transform="translate(28, 105)" class="key keypos-12">
<rect rx="6" ry="6" x="-26" y="-26" width="52" height="52" class="key"/>
</g>
<g transform="translate(84, 105)" class="key keypos-13">
<rect rx="6" ry="6" x="-26" y="-26" width="52" height="52" class="key"/>
</g>
<g transform="translate(140, 91)" class="key keypos-14">
<rect rx="6" ry="6" x="-26" y="-26" width="52" height="52" class="key"/>
</g>
<g transform="translate(196, 84)" class="key keypos-15">
<rect rx="6" ry="6" x="-26" y="-26" width="52" height="52" class="key"/>
</g>
<g transform="translate(252, 91)" class="key keypos-16">
<rect rx="6" ry="6" x="-26" y="-26" width="52" height="52" class="key"/>
</g>
<g transform="translate(308, 98)" class="key keypos-17">
<rect rx="6" ry="6" x="-26" y="-26" width="52" height="52" class="key"/>
</g>
<g transform="translate(532, 98)" class="key keypos-18">
<rect rx="6" ry="6" x="-26" y="-26" width="52" height="52" class="key"/>
</g>
<g transform="translate(588, 91)" class="key keypos-19">
<rect rx="6" ry="6" x="-26" y="-26" width="52" height="52" class="key"/>
</g>
<g transform="translate(644, 84)" class="key keypos-20">
<rect rx="6" ry="6" x="-26" y="-26" width="52" height="52" class="key"/>
</g>
<g transform="translate(700, 91)" class="key keypos-21">
<rect rx="6" ry="6" x="-26" y="-26" width="52" height="52" class="key"/>
</g>
<g transform="translate(756, 105)" class="key keypos-22">
<rect rx="6" ry="6" x="-26" y="-26" width="52" height="52" class="key"/>
</g>
<g transform="translate(812, 105)" class="key keypos-23">
<rect rx="6" ry="6" x="-26" y="-26" width="52" height="52" class="key"/>
</g>
<g transform="translate(28, 161)" class="key keypos-24">
<rect rx="6" ry="6" x="-26" y="-26" width="52" height="52" class="key"/>
</g>
<g transform="translate(84, 161)" class="key keypos-25">
<rect rx="6" ry="6" x="-26" y="-26" width="52" height="52" class="key"/>
</g>
<g transform="translate(140, 147)" class="key keypos-26">
<rect rx="6" ry="6" x="-26" y="-26" width="52" height="52" class="key"/>
</g>
<g transform="translate(196, 140)" class="key keypos-27">
<rect rx="6" ry="6" x="-26" y="-26" width="52" height="52" class="key"/>
</g>
<g transform="translate(252, 147)" class="key keypos-28">
<rect rx="6" ry="6" x="-26" y="-26" width="52" height="52" class="key"/>
</g>
<g transform="translate(308, 154)" class="key keypos-29">
<rect rx="6" ry="6" x="-26" y="-26" width="52" height="52" class="key"/>
</g>
<g transform="translate(532, 154)" class="key keypos-30">
<rect rx="6" ry="6" x="-26" y="-26" width="52" height="52" class="key"/>
</g>
<g transform="translate(588, 147)" class="key keypos-31">
<rect rx="6" ry="6" x="-26" y="-26" width="52" height="52" class="key"/>
</g>
<g transform="translate(644, 140)" class="key keypos-32">
<rect rx="6" ry="6" x="-26" y="-26" width="52" height="52" class="key"/>
</g>
<g transform="translate(700, 147)" class="key keypos-33">
<rect rx="6" ry="6" x="-26" y="-26" width="52" height="52" class="key"/>
</g>
<g transform="translate(756, 161)" class="key keypos-34">
<rect rx="6" ry="6" x="-26" y="-26" width="52" height="52" class="key"/>
</g>
<g transform="translate(812, 161)" class="key keypos-35">
<rect rx="6" ry="6" x="-26" y="-26" width="52" height="52" class="key"/>
</g>
<g transform="translate(224, 205)" class="key keypos-36">
<rect rx="6" ry="6" x="-26" y="-26" width="52" height="52" class="key"/>
</g>
<g transform="translate(286, 213) rotate(15.0)" class="key keypos-37">
<rect rx="6" ry="6" x="-26" y="-26" width="52" height="52" class="key"/>
</g>
<g transform="translate(351, 224) rotate(30.0)" class="key keypos-38">
<rect rx="6" ry="6" x="-26" y="-40" width="52" height="80" class="key"/>
</g>
<g transform="translate(489, 224) rotate(-30.0)" class="key keypos-39">
<rect rx="6" ry="6" x="-26" y="-40" width="52" height="80" class="key"/>
</g>
<g transform="translate(554, 213) rotate(-15.0)" class="key keypos-40">
<rect rx="6" ry="6" x="-26" y="-26" width="52" height="52" class="key"/>
</g>
<g transform="translate(616, 205)" class="key keypos-41">
<rect rx="6" ry="6" x="-26" y="-26" width="52" height="52" class="key"/>
</g>
<g class="combo combopos-0">
<path d="M196,-8 h-50 a6.0,6.0 0 0 0 -6.0,6.0 v18" class="combo"/>
<path d="M196,-8 h50 a6.0,6.0 0 0 1 6.0,6.0 v18" class="combo"/>
<rect rx="6" ry="6" x="182" y="-21" width="28" height="26" class="combo"/>
<text x="196" y="-8" class="combo tap">💡🖱</text>
</g>
<g class="combo combopos-1">
<rect rx="6" ry="6" x="154" y="74" width="28" height="26" class="combo"/>
<text x="168" y="88" class="combo tap">TAB</text>
</g>
<g class="combo combopos-2">
<rect rx="6" ry="6" x="210" y="74" width="28" height="26" class="combo"/>
<text x="224" y="88" class="combo tap">
<tspan x="224" dy="-0.6em">KRP</tspan><tspan x="224" dy="1.2em">⇧⌃</tspan>
</text>
</g>
<g class="combo combopos-3">
<path d="M196,147 l-37,0" class="combo"/>
<path d="M196,147 l37,0" class="combo"/>
<rect rx="6" ry="6" x="182" y="134" width="28" height="26" class="combo"/>
<text x="196" y="147" class="combo tap">^X/✄</text>
</g>
<g class="combo combopos-4">
<rect rx="6" ry="6" x="154" y="130" width="28" height="26" class="combo"/>
<text x="168" y="144" class="combo tap">^⎀/⧉</text>
</g>
<g class="combo combopos-5">
<rect rx="6" ry="6" x="210" y="130" width="28" height="26" class="combo"/>
<text x="224" y="144" class="combo tap">⇧⎀/⎘</text>
</g>
<g class="combo combopos-6">
<rect rx="6" ry="6" x="602" y="18" width="28" height="26" class="combo"/>
<text x="616" y="32" class="combo tap">⌫</text>
</g>
<g class="combo combopos-7">
<rect rx="6" ry="6" x="658" y="18" width="28" height="26" class="combo"/>
<text x="672" y="32" class="combo tap">␡</text>
</g>
<g class="combo combopos-8">
<rect rx="6" ry="6" x="602" y="74" width="28" height="26" class="combo"/>
<text x="616" y="88" class="combo tap">
<tspan x="616" dy="-0.6em">(&lt;</tspan><tspan x="616" dy="1.2em">⇧⌃</tspan>
</text>
</g>
<g class="combo combopos-9">
<rect rx="6" ry="6" x="658" y="74" width="28" height="26" class="combo"/>
<text x="672" y="88" class="combo tap">
<tspan x="672" dy="-0.6em">)&gt;</tspan><tspan x="672" dy="1.2em">⎇⌃</tspan>
</text>
</g>
<g class="combo combopos-10">
<rect rx="6" ry="6" x="602" y="130" width="28" height="26" class="combo"/>
<text x="616" y="144" class="combo tap">[{</text>
</g>
<g class="combo combopos-11">
<rect rx="6" ry="6" x="658" y="130" width="28" height="26" class="combo"/>
<text x="672" y="144" class="combo tap">]}</text>
</g>
<g class="combo combopos-12">
<rect rx="6" ry="6" x="126" y="50" width="28" height="26" class="combo"/>
<text x="140" y="63" class="combo tap">@</text>
</g>
<g class="combo combopos-13">
<rect rx="6" ry="6" x="182" y="43" width="28" height="26" class="combo"/>
<text x="196" y="56" class="combo tap">#</text>
</g>
<g class="combo combopos-14">
<rect rx="6" ry="6" x="238" y="50" width="28" height="26" class="combo"/>
<text x="252" y="63" class="combo tap">$</text>
</g>
<g class="combo combopos-15">
<rect rx="6" ry="6" x="294" y="57" width="28" height="26" class="combo"/>
<text x="308" y="70" class="combo tap">%</text>
</g>
<g class="combo combopos-16">
<rect rx="6" ry="6" x="126" y="106" width="28" height="26" class="combo"/>
<text x="140" y="119" class="combo tap">`</text>
</g>
<g class="combo combopos-17">
<rect rx="6" ry="6" x="182" y="99" width="28" height="26" class="combo"/>
<text x="196" y="112" class="combo tap">\</text>
</g>
<g class="combo combopos-18">
<rect rx="6" ry="6" x="238" y="106" width="28" height="26" class="combo"/>
<text x="252" y="119" class="combo tap">=</text>
</g>
<g class="combo combopos-19">
<rect rx="6" ry="6" x="294" y="113" width="28" height="26" class="combo"/>
<text x="308" y="126" class="combo tap">~</text>
</g>
<g class="combo combopos-20">
<rect rx="6" ry="6" x="518" y="57" width="28" height="26" class="combo"/>
<text x="532" y="70" class="combo tap">^</text>
</g>
<g class="combo combopos-21">
<rect rx="6" ry="6" x="574" y="50" width="28" height="26" class="combo"/>
<text x="588" y="63" class="combo tap">+</text>
</g>
<g class="combo combopos-22">
<rect rx="6" ry="6" x="630" y="43" width="28" height="26" class="combo"/>
<text x="644" y="56" class="combo tap">*</text>
</g>
<g class="combo combopos-23">
<rect rx="6" ry="6" x="686" y="50" width="28" height="26" class="combo"/>
<text x="700" y="63" class="combo tap">&amp;</text>
</g>
<g class="combo combopos-24">
<rect rx="6" ry="6" x="518" y="113" width="28" height="26" class="combo"/>
<text x="532" y="126" class="combo tap">_</text>
</g>
<g class="combo combopos-25">
<rect rx="6" ry="6" x="574" y="106" width="28" height="26" class="combo"/>
<text x="588" y="119" class="combo tap">-</text>
</g>
<g class="combo combopos-26">
<rect rx="6" ry="6" x="630" y="99" width="28" height="26" class="combo"/>
<text x="644" y="112" class="combo tap">/</text>
</g>
<g class="combo combopos-27">
<rect rx="6" ry="6" x="686" y="106" width="28" height="26" class="combo"/>
<text x="700" y="119" class="combo tap">|</text>
</g>
</g>
</g>
</svg>
